<svg xmlns="http://www.w3.org/2000/svg" viewBox="0 0 45 44" width="45" height="44">
	<defs>
		<filter id="flt1"> <feColorMatrix in="SourceGraphic" type="matrix" values="0 0 0 0 0.781   0 0 0 0 0.699   0 0 0 0 0.602   0 0 0 1 0" /> </filter>
	</defs>
	<style>
		tspan { white-space:pre }
		.shp0 { filter: url(#flt1);fill: #c7b299 } 
	</style>
	<path id="icon" class="shp0" d="M31.25 0C30.83 0 30.4 0.03 29.98 0.06C29.83 0.08 29.68 0.1 29.52 0.12C29.27 0.15 29.01 0.19 28.76 0.24C28.57 0.27 28.38 0.31 28.2 0.35C27.99 0.4 27.78 0.46 27.57 0.51C27.37 0.57 27.18 0.62 26.98 0.69C26.81 0.74 26.63 0.81 26.46 0.88C26 1.05 25.55 1.24 25.12 1.46C25.03 1.5 24.94 1.54 24.86 1.59C24.63 1.71 24.41 1.84 24.18 1.98C24.06 2.05 23.94 2.12 23.82 2.2C23.6 2.34 23.4 2.48 23.19 2.63C23.13 2.68 23.06 2.72 23 2.76C20.62 0.97 17.74 0 14.75 0C7.17 0 1 6.17 1 13.75C1 26.19 9 37.45 22.41 43.86C22.59 43.95 22.8 44 23 44C23.2 44 23.41 43.95 23.59 43.86C37 37.45 45 26.19 45 13.75C45 6.17 38.83 0 31.25 0ZM23 41.1C10.93 35.11 3.75 24.93 3.75 13.75C3.75 7.68 8.68 2.75 14.75 2.75C16.97 2.75 19.12 3.43 20.94 4.68C18.81 7.11 17.5 10.28 17.5 13.75C17.5 14.51 18.11 15.12 18.88 15.12C19.64 15.12 20.25 14.51 20.25 13.75C20.25 10.48 21.7 7.54 23.97 5.52C24.18 5.33 24.4 5.16 24.63 4.99C24.68 4.95 24.73 4.91 24.78 4.87C25 4.72 25.22 4.56 25.45 4.42C25.52 4.38 25.58 4.34 25.64 4.3C25.86 4.17 26.09 4.05 26.32 3.93C26.4 3.89 26.48 3.85 26.56 3.81C26.78 3.71 27.01 3.61 27.23 3.52C27.33 3.48 27.43 3.45 27.54 3.41C27.75 3.33 27.97 3.26 28.18 3.2C28.32 3.16 28.44 3.13 28.58 3.09C28.78 3.04 28.97 2.99 29.17 2.95C29.35 2.92 29.54 2.9 29.72 2.87C29.88 2.85 30.03 2.82 30.19 2.8C30.54 2.77 30.89 2.75 31.25 2.75C37.32 2.75 42.25 7.68 42.25 13.75C42.25 24.93 35.07 35.11 23 41.1ZM31.25 5.5C30.49 5.5 29.88 6.12 29.88 6.88C29.88 7.63 30.49 8.25 31.25 8.25C34.28 8.25 36.75 10.72 36.75 13.75C36.75 14.51 37.37 15.12 38.13 15.12C38.88 15.12 39.5 14.51 39.5 13.75C39.5 9.2 35.8 5.5 31.25 5.5Z" />
</svg>