<svg xmlns="http://www.w3.org/2000/svg" viewBox="0 0 18 25" width="18" height="25">
	<defs>
		<filter id="flt1"> <feColorMatrix in="SourceGraphic" type="matrix" values="0 0 0 0 1   0 0 0 0 1   0 0 0 0 1   0 0 0 1 0" /> </filter>
	</defs>
	<style>
		tspan { white-space:pre }
		.shp0 { filter: url(#flt1);fill: #ffffff } 
	</style>
	<path id="icon-cart" class="shp0" d="M15 4L13.5 4C13.5 2.34 11.48 1 9 1C6.51 1 4.5 2.34 4.5 4L3 4C1.35 4 0 5.34 0 7L0 22C0 23.65 1.35 24.99 3 24.99L15 24.99C16.65 24.99 17.99 23.65 17.99 22L17.99 7C17.99 5.34 16.65 4 15 4ZM9 2.5C10.66 2.5 12 2.96 12 4L6 4C6 2.96 7.34 2.5 9 2.5ZM16.5 22C16.5 22.82 15.82 23.49 15 23.49L3 23.49C2.17 23.49 1.5 22.82 1.5 22L1.5 20.5L16.5 20.5L16.5 22ZM16.5 19L1.5 19L1.5 7C1.5 6.17 2.17 5.5 3 5.5L4.5 5.5L4.5 10L6 10L6 5.5L12 5.5L12 10L13.5 10L13.5 5.5L15 5.5C15.82 5.5 16.5 6.17 16.5 7L16.5 19Z" />
</svg>