<svg xmlns="http://www.w3.org/2000/svg" viewBox="0 0 26 26" width="26" height="26">
	<defs>
		<filter id="flt1"> <feColorMatrix in="SourceGraphic" type="matrix" values="0 0 0 0 0.781   0 0 0 0 0.699   0 0 0 0 0.602   0 0 0 1 0" /> </filter>
	</defs>
	<style>
		tspan { white-space:pre }
		.shp0 { filter: url(#flt1);fill: #c7b299 } 
	</style>
	<path id="link" class="shp0" d="M23.5,2.49c-2.4,-2.41 -6.34,-2.41 -8.74,0l-4.72,4.72c1.62,-0.46 3.37,-0.34 4.91,0.38l2.45,-2.46c0.95,-0.96 2.51,-0.96 3.46,0c0.95,0.95 0.95,2.51 0,3.46l-3.08,3.09l-2.03,2.03c-0.95,0.96 -2.51,0.96 -3.46,0l-2.64,2.64c0.61,0.61 1.33,1.07 2.08,1.37c2.03,0.8 4.38,0.49 6.15,-0.9c0.17,-0.14 0.36,-0.29 0.51,-0.46l3.19,-3.19l1.93,-1.93c2.42,-2.41 2.42,-6.33 0,-8.75zM10.94,18.52l-2.35,2.35c-0.95,0.96 -2.51,0.96 -3.46,0c-0.95,-0.96 -0.95,-2.51 0,-3.46l5.11,-5.11c0.95,-0.96 2.51,-0.96 3.46,0l2.64,-2.64c-0.61,-0.61 -1.33,-1.07 -2.08,-1.36c-2.13,-0.85 -4.64,-0.46 -6.43,1.14c-0.09,0.07 -0.17,0.15 -0.24,0.22l-5.11,5.12c-2.4,2.4 -2.4,6.34 0,8.75c2.4,2.41 6.34,2.41 8.74,0l4.62,-4.67c-2.35,0.55 -2.9,0.48 -4.91,-0.32z" />
</svg>