<svg xmlns="http://www.w3.org/2000/svg" viewBox="0 0 49 49" width="49" height="49">
	<defs>
		<filter id="flt1"> <feColorMatrix in="SourceGraphic" type="matrix" values="0 0 0 0 0.333   0 0 0 0 0.333   0 0 0 0 0.333   0 0 0 1 0" /> </filter>
	</defs>
	<style>
		tspan { white-space:pre }
		.shp0 { filter: url(#flt1);fill: #555555 } 
	</style>
	<path id="icon" class="shp0" d="M47.67,17.47c-0.62,-0.62 -1.63,-0.62 -2.25,0l-13.85,13.84l-19.47,8.57l-3,-3l8.58,-19.47l13.84,-13.85c0.62,-0.62 0.62,-1.63 0,-2.25c-0.62,-0.62 -1.63,-0.62 -2.25,0l-14.27,14.26l-14.48,32.87l32.87,-14.48l14.27,-14.27c0.62,-0.62 0.62,-1.63 0,-2.25zM27.5,28.47c0.31,0.31 0.72,0.47 1.12,0.47c0.41,0 0.81,-0.16 1.13,-0.47l13.33,-13.33c0.62,-0.62 0.62,-1.63 0,-2.25c-0.62,-0.62 -1.63,-0.62 -2.25,0l-13.33,13.33c-0.62,0.62 -0.62,1.63 0,2.25zM24.02,24.99c0.31,0.31 0.72,0.46 1.12,0.46c0.41,0 0.82,-0.16 1.12,-0.46l13.33,-13.33c0.62,-0.62 0.62,-1.63 0,-2.25c-0.62,-0.62 -1.63,-0.62 -2.25,0l-13.33,13.33c-0.62,0.62 -0.62,1.63 0,2.25zM20.53,21.5c0.31,0.31 0.72,0.47 1.13,0.47c0.41,0 0.81,-0.15 1.12,-0.47l13.33,-13.33c0.62,-0.62 0.62,-1.63 0,-2.25c-0.62,-0.62 -1.63,-0.62 -2.25,0l-13.33,13.33c-0.62,0.62 -0.62,1.63 0,2.25z" />
</svg>